<svg fill="#E42C6A" xmlns="http://www.w3.org/2000/svg" viewBox="0 0 32 32" x="0px" y="0px"><title>goal darts target business arrow</title><g data-name="Layer 56"><path d="M16,13a3,3,0,1,0,2.7,1.71L24.41,9h1a1,1,0,0,0,.71-.29l3.24-3.25-2.12-.7-.7-2.12L23.29,5.88a1,1,0,0,0-.29.71v1L17.29,13.3A3,3,0,0,0,16,13Z"></path><path d="M14.34,11.29a4.78,4.78,0,0,1,3-.1.89.89,0,0,0,.87-.21l.25-.24a.86.86,0,0,0-.36-1.43,7.11,7.11,0,0,0-3.48-.17,7,7,0,1,0,8.28,8.16,7.07,7.07,0,0,0-.19-3.38.86.86,0,0,0-1.43-.36l-.24.25a.89.89,0,0,0-.21.87,4.84,4.84,0,0,1,0,2.77A5.07,5.07,0,0,1,16.56,21,5,5,0,0,1,11,15.44,5.05,5.05,0,0,1,14.34,11.29Z"></path><path d="M24.15,10.67h0A1,1,0,0,0,24,11.82a8.9,8.9,0,0,1,.94,5.51A9,9,0,1,1,14.67,7.1,8.9,8.9,0,0,1,20.18,8a1,1,0,0,0,1.15-.19h0a1,1,0,0,0-.23-1.59,11,11,0,1,0,4.64,4.64A1,1,0,0,0,24.15,10.67Z"></path></g></svg>