<?xml version="1.0" encoding="utf-8"?>
<!-- Generator: Adobe Illustrator 16.0.3, SVG Export Plug-In . SVG Version: 6.00 Build 0)  -->
<!DOCTYPE svg PUBLIC "-//W3C//DTD SVG 1.1//EN" "http://www.w3.org/Graphics/SVG/1.1/DTD/svg11.dtd">
<svg version="1.1" id="Ebene_1" xmlns="http://www.w3.org/2000/svg" xmlns:xlink="http://www.w3.org/1999/xlink" x="0px" y="0px"
	 width="336.2px" height="57px" viewBox="0 0 336.2 57" enable-background="new 0 0 336.2 57" xml:space="preserve">
<path fill="#FFFFFF" d="M36.8,25c0,1.9-0.9,3.6-2.2,4.5c2.6-0.9,4.5-3.3,4.5-6.2c0-3.6-2.9-6.6-6.6-6.6c-3.6,0-6.6,2.9-6.6,6.6
	c0,2.9,1.9,5.4,4.5,6.2c-1.3-0.9-2.2-2.6-2.2-4.5c0-2.8,1.9-5.1,4.2-5.1C34.9,19.8,36.8,22.1,36.8,25z"/>
<path fill="#FFFFFF" d="M0,0.3V57h58.1V0.3H0z M1.8,55.1V33.9c2.7,11.8,10.7,18.9,13.8,21.3H1.8z M56.2,55.1H27.6
	c0.7-1.2,1.8-3.3,2-5c0.2-2.5-1.1-6-1.7-9.5c-0.6-3.5-0.5-6.2,0.4-8.1c0.8-1.9,2.4-3,2.4-3C19.5,32.2,4.8,7.2,1.9,2.1h40.5
	c0,0,0,0,0,0c0.5,0.5,1.1,1.2,1.8,2.1c4.8,6.7,5.6,13.2,2.9,19.5c-2.7,6.3-12.4,5.7-12.4,5.7s3.6,8,9.9,15.3
	C49.2,50.3,53.9,53.7,56.2,55.1C56.2,55.1,56.2,55.1,56.2,55.1L56.2,55.1z"/>
<g>
	<path fill="#FFFFFF" d="M100.3,22.6c-1,0.5-3.1,1-5.9,1c-7.9,0-12-4.9-12-11.5C82.4,4.4,88,0,95,0c2.7,0,4.7,0.5,5.6,1l-1.1,4.1
		c-1.1-0.4-2.5-0.8-4.4-0.8c-4.1,0-7.3,2.5-7.3,7.6c0,4.6,2.7,7.5,7.3,7.5c1.6,0,3.3-0.3,4.3-0.7L100.3,22.6z"/>
	<path fill="#FFFFFF" d="M119.3,14.8c0,6.1-4.3,8.9-8.8,8.9c-4.9,0-8.6-3.2-8.6-8.6c0-5.4,3.5-8.8,8.9-8.8
		C115.9,6.3,119.3,9.8,119.3,14.8z M107.3,15c0,2.9,1.2,5,3.4,5c2,0,3.3-2,3.3-5c0-2.5-1-5-3.3-5C108.2,10,107.3,12.5,107.3,15z"/>
	<path fill="#FFFFFF" d="M122.5,12.1c0-2.4-0.1-4-0.1-5.5h4.5l0.2,3.1h0.1c0.9-2.4,2.9-3.4,4.5-3.4c0.5,0,0.7,0,1.1,0.1v4.9
		c-0.4-0.1-0.8-0.1-1.4-0.1c-1.9,0-3.2,1-3.5,2.6c-0.1,0.3-0.1,0.7-0.1,1.2v8.4h-5.2V12.1z"/>
	<path fill="#FFFFFF" d="M135.5,12.2c0-2.2-0.1-4-0.1-5.6h4.5L140,9h0.1c1.2-1.8,3.1-2.7,5.5-2.7c3.6,0,6.9,3.2,6.9,8.5
		c0,6.1-3.8,8.9-7.5,8.9c-2,0-3.6-0.8-4.3-1.9h-0.1V30h-5.2V12.2z M140.6,16.1c0,0.4,0,0.8,0.1,1.1c0.3,1.4,1.5,2.4,3,2.4
		c2.2,0,3.6-1.9,3.6-4.7c0-2.7-1.2-4.7-3.5-4.7c-1.5,0-2.8,1.1-3.1,2.6c-0.1,0.3-0.1,0.6-0.1,0.9V16.1z"/>
	<path fill="#FFFFFF" d="M172.3,14.8c0,6.1-4.3,8.9-8.8,8.9c-4.9,0-8.6-3.2-8.6-8.6c0-5.4,3.5-8.8,8.9-8.8
		C168.9,6.3,172.3,9.8,172.3,14.8z M160.3,15c0,2.9,1.2,5,3.4,5c2,0,3.3-2,3.3-5c0-2.5-1-5-3.3-5C161.2,10,160.3,12.5,160.3,15z"/>
	<path fill="#FFFFFF" d="M175.5,12.1c0-2.4-0.1-4-0.1-5.5h4.5l0.2,3.1h0.1c0.8-2.4,2.9-3.4,4.5-3.4c0.5,0,0.7,0,1.1,0.1v4.9
		c-0.4-0.1-0.8-0.1-1.4-0.1c-1.9,0-3.2,1-3.5,2.6c-0.1,0.3-0.1,0.7-0.1,1.2v8.4h-5.2V12.1z"/>
	<path fill="#FFFFFF" d="M197.5,23.3l-0.3-1.7h-0.1c-1.1,1.3-2.8,2-4.8,2c-3.4,0-5.4-2.4-5.4-5.1c0-4.3,3.9-6.4,9.8-6.4V12
		c0-0.9-0.5-2.1-3-2.1c-1.7,0-3.5,0.6-4.6,1.3l-1-3.3c1.2-0.6,3.4-1.5,6.5-1.5c5.5,0,7.3,3.3,7.3,7.2v5.8c0,1.6,0.1,3.1,0.2,4H197.5
		z M196.9,15.4c-2.7,0-4.8,0.6-4.8,2.6c0,1.3,0.9,2,2,2c1.3,0,2.3-0.9,2.7-1.9c0.1-0.3,0.1-0.6,0.1-0.9V15.4z"/>
	<path fill="#FFFFFF" d="M211.5,1.9v4.8h3.7v3.8h-3.7v6c0,2,0.5,2.9,2,2.9c0.6,0,1.2-0.1,1.5-0.1l0,3.9c-0.7,0.3-1.9,0.4-3.4,0.4
		c-1.7,0-3.1-0.6-3.9-1.4c-1-1-1.4-2.6-1.4-4.9v-6.8h-2.2V6.7h2.2V3.1L211.5,1.9z"/>
	<path fill="#FFFFFF" d="M222,16.6c0.2,2.1,2.3,3.2,4.7,3.2c1.8,0,3.2-0.2,4.6-0.7l0.7,3.5c-1.7,0.7-3.8,1-6,1
		c-5.6,0-8.9-3.3-8.9-8.5c0-4.2,2.6-8.9,8.4-8.9c5.4,0,7.4,4.2,7.4,8.3c0,0.9-0.1,1.7-0.2,2H222z M228.1,13.1c0-1.3-0.5-3.4-2.9-3.4
		c-2.2,0-3.1,2-3.2,3.4H228.1z"/>
	<path fill="#FFFFFF" d="M100.3,54.6c-1,0.5-3.1,1-5.9,1c-7.9,0-12-4.9-12-11.5C82.4,36.4,88,32,95,32c2.7,0,4.7,0.5,5.6,1l-1.1,4.1
		c-1.1-0.4-2.5-0.8-4.4-0.8c-4.1,0-7.3,2.5-7.3,7.6c0,4.6,2.7,7.5,7.3,7.5c1.6,0,3.3-0.3,4.3-0.7L100.3,54.6z"/>
	<path fill="#FFFFFF" d="M119.3,46.8c0,6.1-4.3,8.9-8.8,8.9c-4.9,0-8.6-3.2-8.6-8.6c0-5.4,3.5-8.8,8.9-8.8
		C115.9,38.3,119.3,41.8,119.3,46.8z M107.3,47c0,2.9,1.2,5,3.4,5c2,0,3.3-2,3.3-5c0-2.5-1-5-3.3-5C108.2,42,107.3,44.5,107.3,47z"
		/>
	<path fill="#FFFFFF" d="M122.5,44c0-2.1-0.1-3.8-0.1-5.3h4.4l0.2,2.2h0.1c0.7-1.1,2.2-2.6,5-2.6c2.1,0,3.8,1.1,4.6,2.8h0.1
		c0.6-0.8,1.4-1.5,2.1-2c0.9-0.5,1.9-0.8,3.2-0.8c3.2,0,5.6,2.2,5.6,7.2v9.8h-5v-9c0-2.4-0.8-3.8-2.4-3.8c-1.2,0-2,0.8-2.4,1.8
		c-0.1,0.4-0.2,0.9-0.2,1.3v9.7h-5V46c0-2.1-0.7-3.5-2.4-3.5c-1.3,0-2.1,1-2.4,1.9c-0.2,0.4-0.2,0.9-0.2,1.3v9.7h-5V44z"/>
	<path fill="#FFFFFF" d="M151.8,44c0-2.1-0.1-3.8-0.1-5.3h4.4l0.2,2.2h0.1c0.7-1.1,2.2-2.6,5-2.6c2.1,0,3.8,1.1,4.6,2.8h0.1
		c0.6-0.8,1.4-1.5,2.1-2c0.9-0.5,1.9-0.8,3.2-0.8c3.2,0,5.6,2.2,5.6,7.2v9.8h-5v-9c0-2.4-0.8-3.8-2.4-3.8c-1.2,0-2,0.8-2.4,1.8
		c-0.1,0.4-0.2,0.9-0.2,1.3v9.7h-5V46c0-2.1-0.7-3.5-2.4-3.5c-1.3,0-2.1,1-2.4,1.9c-0.2,0.4-0.2,0.9-0.2,1.3v9.7h-5V44z"/>
	<path fill="#FFFFFF" d="M196.7,50c0,2.2,0.1,3.9,0.1,5.3h-4.5l-0.2-2.3H192c-0.6,1-2.2,2.7-5.2,2.7c-3.4,0-5.8-2.1-5.8-7.2v-9.8
		h5.2v8.9c0,2.4,0.8,3.9,2.6,3.9c1.4,0,2.2-1,2.6-1.8c0.1-0.3,0.2-0.7,0.2-1.1v-9.9h5.2V50z"/>
	<path fill="#FFFFFF" d="M200.8,44c0-2.1-0.1-3.8-0.1-5.3h4.5l0.2,2.3h0.1c0.7-1.1,2.4-2.7,5.1-2.7c3.4,0,6,2.2,6,7.1v9.9h-5.2v-9.2
		c0-2.1-0.7-3.6-2.6-3.6c-1.4,0-2.3,1-2.6,1.9c-0.1,0.3-0.2,0.8-0.2,1.3v9.6h-5.2V44z"/>
	<path fill="#FFFFFF" d="M226.1,34c0,1.4-1.1,2.6-2.8,2.6c-1.6,0-2.7-1.2-2.7-2.6c0-1.5,1.1-2.6,2.7-2.6S226.1,32.5,226.1,34z
		 M220.8,55.3V38.7h5.2v16.6H220.8z"/>
	<path fill="#FFFFFF" d="M242.6,54.9c-0.9,0.4-2.7,0.7-4.6,0.7c-5.4,0-8.8-3.3-8.8-8.5c0-4.9,3.3-8.8,9.5-8.8c1.4,0,2.9,0.2,3.9,0.6
		l-0.8,3.8c-0.6-0.3-1.5-0.5-2.9-0.5c-2.7,0-4.5,1.9-4.5,4.7c0,3.1,2,4.7,4.6,4.7c1.2,0,2.2-0.2,3-0.5L242.6,54.9z"/>
	<path fill="#FFFFFF" d="M255,55.3l-0.3-1.7h-0.1c-1.1,1.3-2.8,2-4.8,2c-3.4,0-5.4-2.4-5.4-5.1c0-4.3,3.9-6.4,9.8-6.4V44
		c0-0.9-0.5-2.1-3-2.1c-1.7,0-3.5,0.6-4.6,1.3l-1-3.3c1.2-0.6,3.4-1.5,6.5-1.5c5.5,0,7.3,3.3,7.3,7.2v5.8c0,1.6,0.1,3.1,0.2,4H255z
		 M254.4,47.4c-2.7,0-4.8,0.6-4.8,2.6c0,1.3,0.9,2,2,2c1.3,0,2.3-0.9,2.7-1.9c0.1-0.3,0.1-0.6,0.1-0.9V47.4z"/>
	<path fill="#FFFFFF" d="M269,33.9v4.8h3.7v3.8H269v6c0,2,0.5,2.9,2,2.9c0.6,0,1.2-0.1,1.5-0.1l0,3.9c-0.7,0.3-1.9,0.4-3.4,0.4
		c-1.7,0-3.1-0.6-3.9-1.4c-1-1-1.4-2.6-1.4-4.9v-6.8h-2.2v-3.8h2.2v-3.6L269,33.9z"/>
	<path fill="#FFFFFF" d="M281,34c0,1.4-1.1,2.6-2.8,2.6c-1.6,0-2.7-1.2-2.7-2.6c0-1.5,1.1-2.6,2.7-2.6S281,32.5,281,34z M275.7,55.3
		V38.7h5.2v16.6H275.7z"/>
	<path fill="#FFFFFF" d="M301.4,46.8c0,6.1-4.3,8.9-8.8,8.9c-4.9,0-8.6-3.2-8.6-8.6c0-5.4,3.5-8.8,8.9-8.8
		C298,38.3,301.4,41.8,301.4,46.8z M289.4,47c0,2.9,1.2,5,3.4,5c2,0,3.3-2,3.3-5c0-2.5-1-5-3.3-5C290.3,42,289.4,44.5,289.4,47z"/>
	<path fill="#FFFFFF" d="M304.6,44c0-2.1-0.1-3.8-0.1-5.3h4.5l0.2,2.3h0.1c0.7-1.1,2.4-2.7,5.1-2.7c3.4,0,5.9,2.2,5.9,7.1v9.9h-5.2
		v-9.2c0-2.1-0.7-3.6-2.6-3.6c-1.4,0-2.3,1-2.6,1.9c-0.1,0.3-0.2,0.8-0.2,1.3v9.6h-5.2V44z"/>
	<path fill="#FFFFFF" d="M324.5,50.8c1,0.6,2.9,1.3,4.5,1.3c1.6,0,2.2-0.5,2.2-1.4c0-0.8-0.5-1.3-2.4-1.9c-3.4-1.2-4.8-3-4.7-5
		c0-3.1,2.7-5.4,6.8-5.4c1.9,0,3.7,0.4,4.7,1l-0.9,3.6c-0.7-0.4-2.2-1-3.6-1c-1.3,0-2,0.5-2,1.4c0,0.8,0.6,1.2,2.7,1.9
		c3.2,1.1,4.5,2.7,4.5,5.1c0,3.1-2.4,5.4-7.2,5.4c-2.2,0-4.1-0.5-5.4-1.2L324.5,50.8z"/>
</g>
</svg>
