<?xml version="1.0" encoding="utf-8"?>
<!-- Generator: Adobe Illustrator 14.0.0, SVG Export Plug-In  -->
<!DOCTYPE svg PUBLIC "-//W3C//DTD SVG 1.1//EN" "http://www.w3.org/Graphics/SVG/1.1/DTD/svg11.dtd" [
	<!ENTITY ns_flows "http://ns.adobe.com/Flows/1.0/">
]>
<svg version="1.1"
	 xmlns="http://www.w3.org/2000/svg" xmlns:xlink="http://www.w3.org/1999/xlink" xmlns:a="http://ns.adobe.com/AdobeSVGViewerExtensions/3.0/"
	 x="0px" y="0px" width="175px" height="171px" viewBox="-0.242 -0.464 175 171" enable-background="new -0.242 -0.464 175 171"
	 xml:space="preserve">
<defs>
</defs>
<path fill="#FFFFFF" d="M110.507,74.089c0,5.798-2.642,10.843-6.544,13.468c7.883-2.581,13.579-9.983,13.579-18.73
	c0-10.886-8.823-19.71-19.713-19.71c-10.887,0-19.713,8.824-19.713,19.71c0,8.747,5.699,16.149,13.579,18.73
	c-3.9-2.625-6.546-7.671-6.546-13.468c0-8.501,5.679-15.398,12.68-15.398C104.832,58.691,110.507,65.588,110.507,74.089z"/>
<path fill="#FFFFFF" d="M0,0v170.079h174.176V0H0z M5.485,164.592v-63.832c8.129,35.471,31.996,56.685,41.344,63.832H5.485z
	 M168.692,164.592h-85.95c2.077-3.563,5.389-9.939,5.868-15.093c0.707-7.585-3.275-18.099-5.2-28.586
	c-1.926-10.488-1.361-18.503,1.191-24.2c2.488-5.555,7.106-9.148,7.106-9.148c-33.299,8.11-77.352-66.747-85.98-82.079h121.548
	c0.01,0.011,0.017,0.019,0.025,0.027c1.432,1.471,3.235,3.542,5.269,6.355c14.433,19.983,16.803,39.73,8.718,58.613
	c-8.125,18.973-37.329,17.08-37.329,17.08s10.7,23.935,29.567,46.031c14.163,16.581,28.176,26.658,35.155,30.99
	c0.005,0.002,0.008,0.005,0.012,0.006V164.592z"/>
</svg>
